# xmcd
#
# Track frame offsets: 
#        150
#        10723
#        19042
#        36681
#        50460
#        68999
#        80199
#        94815
#        106065
#        123768
#        131058
#        147523
#        158810
#        169085
#        181219
#
# Disc length: 2633 seconds
#
# Revision: 0
# Processed by: cddbd v1.5.2PL0 Copyright (c) Steve Scherf et al.
# Submitted via: ExactAudioCopyFreeDBPlugin 1.0
#
DISCID=cb0a470f
DTITLE=Уровень Моря - Ценнеёшая лампа
DYEAR=2013
DGENRE=
TTITLE0=Музыка
TTITLE1=Лесенка
TTITLE2=Вещие сны
TTITLE3=Некая часть
TTITLE4=Тельняшка
TTITLE5=Две лягушки
TTITLE6=Весна
TTITLE7=Троллейбус
TTITLE8=Детка-блюз
TTITLE9=Шарманка
TTITLE10=Базаров
TTITLE11=Нормальный
TTITLE12=Серебряный шар
TTITLE13=Радость и смерть
TTITLE14=Базаров
EXTD=
EXTT0=
EXTT1=
EXTT2=
EXTT3=
EXTT4=
EXTT5=
EXTT6=
EXTT7=
EXTT8=
EXTT9=
EXTT10=
EXTT11=
EXTT12=
EXTT13=
EXTT14=
PLAYORDER=
